<?xml version="1.0" encoding="UTF-8"?>
<svg xmlns="http://www.w3.org/2000/svg" xmlns:xlink="http://www.w3.org/1999/xlink" width="1000px" height="31px" viewBox="0 0 1000 31" version="1.1">
<g id="surface1">
<path style="fill:none;stroke-width:2;stroke-linecap:butt;stroke-linejoin:miter;stroke:rgb(99.215686%,83.921569%,72.941176%);stroke-opacity:1;stroke-miterlimit:4;" d="M 15.498656 15.5 L 775.501344 15.5 " transform="matrix(1.264223,0,0,1,0,0)"/>
<path style="fill-rule:nonzero;fill:rgb(99.607843%,98.823529%,96.862745%);fill-opacity:1;stroke-width:2;stroke-linecap:butt;stroke-linejoin:miter;stroke:rgb(5.490196%,52.941176%,51.764706%);stroke-opacity:1;stroke-miterlimit:4;" d="M 29.999293 15.5 C 29.999293 23.507812 23.507531 30 15.498656 30 C 7.492871 30 1.001109 23.507812 1.001109 15.5 C 1.001109 7.492188 7.492871 1 15.498656 1 C 23.507531 1 29.999293 7.492188 29.999293 15.5 Z M 29.999293 15.5 " transform="matrix(1.264223,0,0,1,0,0)"/>
<path style="fill-rule:nonzero;fill:rgb(99.607843%,98.823529%,96.862745%);fill-opacity:1;stroke-width:2;stroke-linecap:butt;stroke-linejoin:miter;stroke:rgb(5.490196%,52.941176%,51.764706%);stroke-opacity:1;stroke-miterlimit:4;" d="M 410.000637 15.5 C 410.000637 23.507812 403.508875 30 395.5 30 C 387.491125 30 380.999363 23.507812 380.999363 15.5 C 380.999363 7.492188 387.491125 1 395.5 1 C 403.508875 1 410.000637 7.492188 410.000637 15.5 Z M 410.000637 15.5 " transform="matrix(1.264223,0,0,1,0,0)"/>
<path style="fill-rule:nonzero;fill:rgb(99.607843%,98.823529%,96.862745%);fill-opacity:1;stroke-width:2;stroke-linecap:butt;stroke-linejoin:miter;stroke:rgb(5.490196%,52.941176%,51.764706%);stroke-opacity:1;stroke-miterlimit:4;" d="M 789.998891 15.5 C 789.998891 23.507812 783.507129 30 775.501344 30 C 767.492469 30 761.000707 23.507812 761.000707 15.5 C 761.000707 7.492188 767.492469 1 775.501344 1 C 783.507129 1 789.998891 7.492188 789.998891 15.5 Z M 789.998891 15.5 " transform="matrix(1.264223,0,0,1,0,0)"/>
</g>
</svg>
