<?xml version="1.0" encoding="UTF-8"?>
<svg xmlns="http://www.w3.org/2000/svg" xmlns:xlink="http://www.w3.org/1999/xlink" width="900px" height="31px" viewBox="0 0 900 31" version="1.1">
<g id="surface1">
<path style="fill:none;stroke-width:2;stroke-linecap:butt;stroke-linejoin:miter;stroke:rgb(99.215686%,83.921569%,72.941176%);stroke-opacity:1;stroke-miterlimit:4;" d="M 15.497277 15.5 L 775.502412 15.5 " transform="matrix(1.137801,0,0,1,0,0)"/>
<path style="fill-rule:nonzero;fill:rgb(99.607843%,98.823529%,96.862745%);fill-opacity:1;stroke-width:2;stroke-linecap:butt;stroke-linejoin:miter;stroke:rgb(5.490196%,52.941176%,51.764706%);stroke-opacity:1;stroke-miterlimit:4;" d="M 29.998938 15.5 C 29.998938 23.507812 23.506835 30 15.497277 30 C 7.494585 30 1.002482 23.507812 1.002482 15.5 C 1.002482 7.492188 7.494585 1 15.497277 1 C 23.506835 1 29.998938 7.492188 29.998938 15.5 Z M 29.998938 15.5 " transform="matrix(1.137801,0,0,1,0,0)"/>
<path style="fill-rule:nonzero;fill:rgb(99.607843%,98.823529%,96.862745%);fill-opacity:1;stroke-width:2;stroke-linecap:butt;stroke-linejoin:miter;stroke:rgb(5.490196%,52.941176%,51.764706%);stroke-opacity:1;stroke-miterlimit:4;" d="M 410.001506 15.5 C 410.001506 23.507812 403.509403 30 395.499845 30 C 387.490286 30 380.998184 23.507812 380.998184 15.5 C 380.998184 7.492188 387.490286 1 395.499845 1 C 403.509403 1 410.001506 7.492188 410.001506 15.5 Z M 410.001506 15.5 " transform="matrix(1.137801,0,0,1,0,0)"/>
<path style="fill-rule:nonzero;fill:rgb(99.607843%,98.823529%,96.862745%);fill-opacity:1;stroke-width:2;stroke-linecap:butt;stroke-linejoin:miter;stroke:rgb(5.490196%,52.941176%,51.764706%);stroke-opacity:1;stroke-miterlimit:4;" d="M 789.997207 15.5 C 789.997207 23.507812 783.508538 30 775.502412 30 C 767.492854 30 761.000751 23.507812 761.000751 15.5 C 761.000751 7.492188 767.492854 1 775.502412 1 C 783.508538 1 789.997207 7.492188 789.997207 15.5 Z M 789.997207 15.5 " transform="matrix(1.137801,0,0,1,0,0)"/>
</g>
</svg>
