<?xml version="1.0" encoding="UTF-8"?>
<svg xmlns="http://www.w3.org/2000/svg" xmlns:xlink="http://www.w3.org/1999/xlink" width="700px" height="31px" viewBox="0 0 700 31" version="1.1">
<g id="surface1">
<path style="fill:none;stroke-width:2;stroke-linecap:butt;stroke-linejoin:miter;stroke:rgb(99.215686%,83.921569%,72.941176%);stroke-opacity:1;stroke-miterlimit:4;" d="M 14.99875 16 L 481.000039 16 " transform="matrix(1.408451,0,0,1,0,0)"/>
<path style="fill-rule:nonzero;fill:rgb(99.607843%,98.823529%,96.862745%);fill-opacity:1;stroke-width:2;stroke-linecap:butt;stroke-linejoin:miter;stroke:rgb(5.490196%,52.941176%,51.764706%);stroke-opacity:1;stroke-miterlimit:4;" d="M 30.000273 15.5 C 30.000273 23.507812 23.507656 30 15.500742 30 C 7.491055 30 1.001211 23.507812 1.001211 15.5 C 1.001211 7.492188 7.491055 1 15.500742 1 C 23.507656 1 30.000273 7.492188 30.000273 15.5 Z M 30.000273 15.5 " transform="matrix(1.408451,0,0,1,0,0)"/>
<path style="fill-rule:nonzero;fill:rgb(99.607843%,98.823529%,96.862745%);fill-opacity:1;stroke-width:2;stroke-linecap:butt;stroke-linejoin:miter;stroke:rgb(5.490196%,52.941176%,51.764706%);stroke-opacity:1;stroke-miterlimit:4;" d="M 262.999531 15.5 C 262.999531 23.507812 256.506914 30 248.5 30 C 240.493086 30 234.000469 23.507812 234.000469 15.5 C 234.000469 7.492188 240.493086 1 248.5 1 C 256.506914 1 262.999531 7.492188 262.999531 15.5 Z M 262.999531 15.5 " transform="matrix(1.408451,0,0,1,0,0)"/>
<path style="fill-rule:nonzero;fill:rgb(99.607843%,98.823529%,96.862745%);fill-opacity:1;stroke-width:2;stroke-linecap:butt;stroke-linejoin:miter;stroke:rgb(5.490196%,52.941176%,51.764706%);stroke-opacity:1;stroke-miterlimit:4;" d="M 495.998789 15.5 C 495.998789 23.507812 489.508945 30 481.499258 30 C 473.492344 30 466.999727 23.507812 466.999727 15.5 C 466.999727 7.492188 473.492344 1 481.499258 1 C 489.508945 1 495.998789 7.492188 495.998789 15.5 Z M 495.998789 15.5 " transform="matrix(1.408451,0,0,1,0,0)"/>
</g>
</svg>
