<?xml version="1.0" encoding="UTF-8"?>
<svg xmlns="http://www.w3.org/2000/svg" xmlns:xlink="http://www.w3.org/1999/xlink" width="600px" height="31px" viewBox="0 0 600 31" version="1.1">
<g id="surface1">
<path style="fill:none;stroke-width:2;stroke-linecap:butt;stroke-linejoin:miter;stroke:rgb(99.215686%,83.921569%,72.941176%);stroke-opacity:1;stroke-miterlimit:4;" d="M 15.000599 16 L 480.999577 16 " transform="matrix(1.207243,0,0,1,0,0)"/>
<path style="fill-rule:nonzero;fill:rgb(99.607843%,98.823529%,96.862745%);fill-opacity:1;stroke-width:2;stroke-linecap:butt;stroke-linejoin:miter;stroke:rgb(5.490196%,52.941176%,51.764706%);stroke-opacity:1;stroke-miterlimit:4;" d="M 30.001198 15.5 C 30.001198 23.507812 23.507194 30 15.498893 30 C 7.490592 30 0.999824 23.507812 0.999824 15.5 C 0.999824 7.492188 7.490592 1 15.498893 1 C 23.507194 1 30.001198 7.492188 30.001198 15.5 Z M 30.001198 15.5 " transform="matrix(1.207243,0,0,1,0,0)"/>
<path style="fill-rule:nonzero;fill:rgb(99.607843%,98.823529%,96.862745%);fill-opacity:1;stroke-width:2;stroke-linecap:butt;stroke-linejoin:miter;stroke:rgb(5.490196%,52.941176%,51.764706%);stroke-opacity:1;stroke-miterlimit:4;" d="M 262.999069 15.5 C 262.999069 23.507812 256.508301 30 248.5 30 C 240.491699 30 234.000931 23.507812 234.000931 15.5 C 234.000931 7.492188 240.491699 1 248.5 1 C 256.508301 1 262.999069 7.492188 262.999069 15.5 Z M 262.999069 15.5 " transform="matrix(1.207243,0,0,1,0,0)"/>
<path style="fill-rule:nonzero;fill:rgb(99.607843%,98.823529%,96.862745%);fill-opacity:1;stroke-width:2;stroke-linecap:butt;stroke-linejoin:miter;stroke:rgb(5.490196%,52.941176%,51.764706%);stroke-opacity:1;stroke-miterlimit:4;" d="M 496.000176 15.5 C 496.000176 23.507812 489.509408 30 481.501107 30 C 473.492806 30 466.998802 23.507812 466.998802 15.5 C 466.998802 7.492188 473.492806 1 481.501107 1 C 489.509408 1 496.000176 7.492188 496.000176 15.5 Z M 496.000176 15.5 " transform="matrix(1.207243,0,0,1,0,0)"/>
</g>
</svg>
